<?xml version="1.0" encoding="utf-8"?>
<!-- Generator: Adobe Illustrator 26.5.0, SVG Export Plug-In . SVG Version: 6.00 Build 0)  -->
<svg version="1.1" id="Warstwa_1" xmlns="http://www.w3.org/2000/svg" xmlns:xlink="http://www.w3.org/1999/xlink" x="0px" y="0px"
	 viewBox="0 0 1011.9 884.7" style="enable-background:new 0 0 1011.9 884.7;" xml:space="preserve">
<style type="text/css">
	.st0{fill:#206FB7;}
	.st1{fill:#FFFFFF;}
	.st2{fill:#3DA0DA;}
	.st3{fill:#EC681C;}
	.st4{fill:#202448;}
</style>
<g>
	<path class="st0" d="M434.5,57.8c-47.4,0-94.8-0.3-142.3,0.3c-4,0.1-3.5,6.1,0.4,6.1c46.2,0.6,92.4,0.4,138.6,0.5
		c-0.3,10.2-0.5,20.4-0.8,30.6c-0.1,5.5-0.3,10.9-0.4,16.4c-0.1,5.7-1,11.9,0,17.4c0.6,3.1,4.9,3.8,5.7,0.4c1.2-5.1,0.8-10.8,0.9-16
		c0.2-5.8,0.3-11.6,0.5-17.5c0.3-11.6,0.6-23.3,0.9-34.9C438.2,59.1,436.2,57.8,434.5,57.8z"/>
	<path class="st1" d="M544.9,231.8c-0.3,14,2.1,32.2-13,39.3c-6.7,3.2-14.5,3.8-21.8,4c-4.6,0.1-9.3-0.1-13.9-0.5
		c-3.1-0.3-6-1.3-8.9-2.4c-6.7,5.5-12.8,11.9-19.8,17.2c-7.5,5.7-15.6,10.6-23.9,15.1c-2.2,1.2-5.7-0.9-4.1-3.5
		c4.3-7.2,8.6-15.5,10.1-23.9c0.9-5-1-4.8-4.4-6.1c-34.7-5.6-70.2,2-105-2c-6.1-0.1-12.2-0.1-18.3-0.2c-10.7-0.2-21.4,0-32.1-0.8
		c-7.3-0.5-13.2-3.8-16.7-10.3c-3.7-7-4.1-15.1-4.5-22.8c-0.4-8.8-0.2-17.7,0.3-26.6c-1.6-0.3-3-1.4-2.9-3.6
		c0.3-10.9,1.5-21.6,3.8-32.2c0.3-1.5,1.4-2.5,2.7-2.9c-1.1-7.9-2.8-15.9-1.3-23.7c1.2-6.6,5.1-13,11.2-15.9
		c7.7-3.6,18.1-1.1,26.3-0.7c37.9,1.9,75.8,3.2,113.6,3.9c18.8,0.4,37.6,0.5,56.5,0.6c9.6,0,19.2,0,28.7,0
		c7.7-0.1,15.8-0.5,23.1,2.4c5.7,2.3,10.8,6.7,12.8,12.6c1.4,4,1.2,8.4,1.2,12.5c0.2,4.8,0.2,9.6,0.3,14.4
		C545.3,194.2,545.3,213,544.9,231.8z"/>
	<g>
		<path class="st2" d="M333.2,173.2c10.9-0.1,21.9-0.1,32.8-0.2c10.6-0.1,21.3-0.2,31.9-0.3c5.5,0,10.9-0.1,16.4-0.2
			c5.1-0.1,11.5,1,16.3-1.5c2.3-1.2,3.1-5.6,0.4-7c-4.5-2.2-9.8-1.4-14.6-1.4c-5.5,0-10.9,0-16.4,0.1c-11.2,0.1-22.4,0.2-33.6,0.3
			c-10.9,0.1-21.9,0.2-32.8,0.4c-10.6,0.1-22.2-1.1-32.5,2c-2.9,0.9-2.2,5.7,0.4,6.4C311.4,174.7,322.9,173.3,333.2,173.2z"/>
		<path class="st2" d="M304.8,206.5c6.1,0.4,12.3-0.2,18.4-0.5c2.9-0.2,5.9-0.3,8.8-0.5c3.1-0.2,6.4,0,9.6-0.6
			c4.8-0.9,4.2-8.4-0.5-8.8c-3-0.2-6.2,0.3-9.2,0.5l-9.2,0.6c-6.1,0.4-12.3,0.6-18.4,1.7C300.2,199.6,300.6,206.2,304.8,206.5z"/>
		<path class="st2" d="M419.4,195.3c-2.6-0.1-5.3-0.1-7.9-0.2c-5.9-0.1-11.9,0-17.8,0.2c-5.7,0.2-11.4,0.4-17.1,0.6
			c-2.9,0.1-5.7,0.3-8.5,0.6c-2.8,0.2-5.9,0.2-8.4,1.6c-1.5,0.9-2.3,4-0.3,4.9c5,2.2,11.7,0.9,17,0.7c5.7-0.2,11.4-0.4,17.1-0.5
			c5.7-0.1,11.4-0.2,17.1-0.4c3.1-0.1,6.1-0.2,9.2-0.3c2.8-0.1,5.8,0.3,8.5-0.7c2.7-1,1.9-5.1-0.3-5.9
			C425.4,195,422.2,195.4,419.4,195.3z"/>
		<path class="st2" d="M430,226.6c-21.3-0.6-42.5,1-63.8,0.5c-10.3-0.3-20.7-0.7-31-1.1c-5.5-0.2-10.9-0.5-16.4-0.7
			c-5.1-0.2-10.2-0.7-15.2,0.8c-2.2,0.7-2.5,5.1-0.3,6c9.1,4,20.2,3.1,29.9,3.4c10.9,0.4,21.8,0.5,32.7,0.3
			c21.4-0.3,43.2,0.2,64.5-2.8C433.8,232.4,433.5,226.7,430,226.6z"/>
	</g>
	<g>
		<path class="st2" d="M540.2,133c-0.1-0.1-0.3-0.1-0.4-0.2c-8.8-4.5-22.9-3.8-32.7-4.5c-39.2-2.7-79.1-3-118.4-2.7
			c-18.4,0.1-36.9,0.2-55.3,0.4c-9.5,0.1-19.1,0.2-28.6,0.3c-7.5,0.1-15.1,0.3-22.4,2.6c-11.1,3.5-22.2,14.7-19.4,26.6
			c-2.1,16.8-2.3,33.7-1.8,50.6c0.3,10.6,0.7,21.3,1.5,31.9c0.4,5,0.7,10,1.1,15c0.3,3.9,0.6,7.7,3,11c4.6,6.4,13.9,7.8,21.1,9.1
			c9.7,1.7,19.6,2.4,29.5,2.7c20.8,0.6,41.6,0.2,62.5-0.1c23-0.3,46-0.4,69-0.3c-2,4.8-3.5,10-5.6,14.8c-2.5,5.8-5.4,11.4-8.6,16.8
			c-0.7,1.2-0.3,3.2,0.9,4c5,3.6,9.8-0.2,13.8-3.3c4.9-3.8,9.7-7.7,14.4-11.6c4.6-3.8,9.2-7.8,13.7-11.8c2-1.8,4.2-3.6,6-5.7
			c0.6-0.7,1.2-1.4,1.7-2.2c9.2,0.7,18.4,1.4,27.6,1.9c8,0.4,16.2,0.2,23.5-3.6c16.2-8.4,13.2-28.2,13.7-43.4
			c0.6-19.2,1.5-38.4,2.1-57.6C552.5,160.1,554.8,140.9,540.2,133z M544.5,169.7c-0.5,16.1-0.9,32.2-1.2,48.3
			c-0.2,8.4-0.5,16.7-0.7,25.1c-0.2,7.3,0.8,16.5-4.8,22.2c-5.8,6-14.9,6.8-22.8,6.5c-9.6-0.4-19.2-1.5-28.7-2.3
			c-0.5,0-0.8,0-1.2,0.1c-0.9-0.3-1.9-0.2-2.8,0.6c-1.5,1.3-2.3,3.4-3.7,4.9c-1.5,1.6-3.3,3-5,4.4c-3.9,3.3-7.9,6.5-11.9,9.8
			c-3.9,3.2-7.8,6.3-11.7,9.4c-1.7,1.4-3.5,2.7-5.3,4.1c1.7-3.3,3.3-6.6,4.7-10c2.4-5.8,5.1-12.1,5.7-18.3c0.1-1.4-0.7-2.5-1.8-3
			c-0.5-0.7-1.2-1.2-2.2-1.2c-38.9-0.3-77.8-1.8-116.8-2c-9.8-0.1-19.6-0.1-29.4-0.9c-8.7-0.7-18.6-1.4-26.8-4.7
			c-4.1-1.7-5.5-3.7-6-8.1c-0.6-5-0.7-10-1.1-15c-0.7-9.4-1.5-18.7-2-28.1c-0.9-17.2-1.1-34.5-0.6-51.7c0.3-0.5,0.3-1,0.2-1.6
			c0-0.2-0.1-0.3-0.1-0.5c0.1-3,0.2-5.9,0.3-8.9c1-2.9,2.7-5.5,5.1-7.7c5.3-5,12.9-6.4,20-6.9c15.8-1.1,31.8-0.4,47.6-0.5
			c53.9-0.2,107.6-0.2,161.5,0.6c10.6,0.2,22.3,0.4,31.7,5.7C546.5,146.2,544.8,157.9,544.5,169.7z"/>
	</g>
	<path class="st3" d="M291.6,77.5c-6.9,3.7-13.6,7.8-20.1,12.3c-9.2,6.5-17.5,13.9-26.5,20.7c-9.7,7.2-19.9,11.6-31.8,13.5
		c-11.6,1.8-23.2,3-34.8,4.6c-21.9,3.1-44.2,7.3-64.2,17.3c-7.6,3.8-14.8,8.3-21.3,13.7c-1.1-11.6-1.7-24.8-1.8-30.2
		c-0.2-28.6-4-59.1-1.1-87.5c1-10,3.8-20.5,10.8-28.1c8.4-9.1,16.4-7.9,28.2-7.2c12.9,0.7,108-1,119.7-1.3c9-0.2,18.9,0.4,26.9,4.9
		c9.3,5.2,13.1,14.4,14,24.7c1.1,13.3,1.2,26.7,1.8,40C291.5,75.6,291.6,76.5,291.6,77.5z"/>
	<path class="st1" d="M188.6,84.7c-13.2,16.7-43.3,19.8-56.1-1.1c-12-19.7-0.1-40.2,20.3-46.6c18.8-5.9,39.9,5.5,42,25.8
		C195.7,71.5,193.2,78.9,188.6,84.7z"/>
	<path class="st4" d="M288.4,192.8c-13.1,9.7-24.4,12.8-91,12.8c-30.7,0-88.6,8.6-101.5-27.8c-0.8-2.2-1.5-6-2.1-10.5
		c-0.3-2.5-0.6-5.2-0.9-7.9c6.5-5.3,13.7-9.9,21.3-13.7c19.9-10,42.3-14.2,64.2-17.3c11.6-1.6,23.3-2.7,34.8-4.6
		c12-1.9,22.1-6.2,31.8-13.5c9-6.7,17.3-14.2,26.5-20.7c6.5-4.5,13.1-8.6,20.1-12.3c0.1,2.7,0.2,5.5,0.4,8.2
		c1.1,24.5,2.2,48.9,3.3,73.4C295.7,168.5,296.6,186.6,288.4,192.8z"/>
	<path class="st1" d="M294.3,273c-0.6,20.6-3.2,41.2-5,61.7c-0.7,7.6,0.8,19.8-6.5,24.5c-3.4,2.2-7.7,2.3-11.6,2.8
		c-4.6,0.6-9.3,1.2-13.9,1.8c-18.9,2.4-38.8,3.3-57.5-0.4c-5.1-1-9.7-2.7-14.5-4.2c-4-1.3-6.8-0.4-10.6,1c-8,3-15.6,5.9-23.7,1.5
		c-3-1.7-5.1-5-4.5-8.5c-3-1.6-4.2-6.1-1.9-9.3c4.5-6.5,6.3-14.5,8.4-22.1c1.8-6.4,3.5-13,5-19.5c2.5-11,4.5-22,6-33.2
		c-3.5-1.9-6.9-4-10.2-6.3c-16.4-8.6-33-16.6-50-23.9c-0.9-0.4-1.6-1-2.1-1.7c-14.5-4-29.3-7.5-43.6-12.7c-8.2-3-16.2-6.6-23.7-11.2
		c-7.4-4.6-15.2-10-19.2-18.1c-4.5-9.2-1.4-19.2,1.1-28.5c2.5-9.2,5.9-17.7,11.4-25.5c0.5-0.7,1.1-1.1,1.7-1.5
		c1.1-7.9,3.1-15.7,6.1-23.2c1.9-4.8,4.2-10.2,9.9-11.2c2.4-0.4,4.6,0.1,6.8,1.1c0.9,0.4,2.3,1.6,3.5,2.1c0.4-1.1,0.8-2.2,1.2-3.3
		c-1.3-7.3,3.5-13.1,10.1-14.8c4.5-2.2,9.8-2.5,14.6-0.4c2.8,1,5.3,2.8,7.1,5.5c0.1,0.1,0.1,0.3,0.2,0.4c1.1,0.8,2.2,1.6,3.2,2.5
		c0.5-1.6,1.2-3.2,2.1-4.6c-0.5-1-0.8-2.1-0.6-3.1c2.6-10.7,16-11.8,23.2-5c4.4,4.1,6.8,10.1,8.6,15.6c2.4,7.3,4.6,14.7,6.8,22
		c4.4,14.3,9.3,29.5,16.7,42.9c3.9,4.5,7.9,8.9,11.8,13.4c1.2-0.1,2.4,0.1,3.5,0.8c5.5,3.3,11.1,6.5,16.8,9.7
		c6.1,1.3,12,3.4,17.5,6.4c2,1.1,3.1,2.8,3.4,4.6c0.3,0.2,0.7,0.4,1,0.5c1-0.4,2.1-0.6,3.4-0.3c16.6,3.8,31.6,11.4,46.5,19.4
		c4.5,2.4,8.9,4.9,13.2,7.5c0.9-0.3,1.7-0.5,2.7-0.4C291.3,229.7,294.9,255.6,294.3,273z"/>
	<path class="st0" d="M1005.5,770.1c-0.3,3.7-1.1,7-2.2,10c-0.5,24.9-24.6,39.6-45.9,46.4c-7,2.2-14.2,4-21.3,6
		c-7.2,2-14.2,4.5-21.5,5.9c-14.9,3-30.4,0.7-45.5,0c-3.2-0.1-6.3-0.3-9.5-0.4c-2.9-0.1-5.7-0.2-8.6-0.3
		c-50.4-1.4-100.8,0.5-151.2,2.9c-27,1.3-54.1,3.2-81.2,3.5c-20.8,0.2-43-1.2-61.8-11.3c-20.6-11-30.6-30.8-39.1-51.6
		c-10-24.5-18.7-49.6-26.1-75.1c-7.1-24.4-12.8-49.3-17.3-74.3c-36.2,6-72.5,12-108.7,17.8c-27.8,4.5-55.5,8.9-83.3,13.3
		c-26.3,4.2-53,8.5-79.7,5.6c-22.3-2.4-44.9-10.2-61.6-25.7c-16.9-15.6-26.5-37.1-28.6-59.9c-2.5-26-0.3-52.9,1.9-78.9
		c2.2-26.9,5.9-53.6,10.4-80.2c4.6-26.6,9.8-53.1,15.9-79.5c0.6-2.9,1.3-5.7,2-8.5c3.2,0,6.4,0.1,9.6,0.2c1.1,0,2.1,0,3.1,0
		c8.2,0,16.4,0.1,24.5,0.3c15.6,0.2,31.2,0.4,46.8,0.5c16,0.1,32,0.3,48,0.4h10.6c2.6,0,5.1,0,7.7,0.1c-0.2,3-0.4,6-0.5,9
		c-1.9,31.9-2.8,63.8-2.9,95.7v1.5c2.7-0.4,5.4-0.9,8.1-1.4c19.4-3.5,38.5-8.5,57.4-14.3c30.6-9.4,60.8-20.3,92-27.5
		c27.5-6.3,55.6-9.5,83.7-6.1c9.4,1.2,18.8,2.8,28.1,4.7c2.9,0.6,5.9,1.2,8.8,1.9c19.7,4.4,39.3,9.8,58.7,14.5
		c65.8,15.8,131.7,31.5,197.6,47.3c8,2,16.2,3.9,24.1,6.7c-0.1,0.4-0.1,0.8-0.2,1.2c22.9,6.7,43.4,22.6,57.1,41.6
		c8.6,12,14.9,25.4,21.1,38.7c7,14.9,13.9,29.8,20.9,44.7c13.4,28.5,26.6,57.1,37.6,86.6c5.4,14.5,10.5,29.2,14.8,44.1
		C1003.6,740.4,1006.8,755.2,1005.5,770.1z"/>
	<path class="st1" d="M484.7,605.9c-9.7,2-14.7,15.2-19,22.9c-5.9,10.2-11.6,20.5-17.6,30.6c-3.5,6-7,15-13.8,18.2
		c-6.6,3.2-12.8-0.3-17.7-4.8c-6.6-5.9-13.1-9.5-21.5-12.2c-7.5-2.4-15.2-4.4-22-8.3c-13.8-7.9-22.3-21.7-28.5-35.8
		c-3.8-8.6-7-17.6-9.8-26.6c-1.9-6-3.9-12.1-5.6-18.2c-0.6,0.2-1.2,0.4-1.8,0.5c-0.9,6.8-5,13.5-11.7,13.6
		c-7.8,0.1-15-6.6-19.9-11.8c-5.4-5.7-9.8-12.4-12.4-19.8c-5-14.7-1.7-30.7,9.4-41.6c6.5-6.3,4.6-16.3,9.5-23.9
		c3.2-5.1,8.1-8.4,13.8-9.2c0.9-12.3,14.7-19.7,26.4-18.8c8.5,0.7,16.4,4.4,24.1,8c4.4,2.1,8.9,4.2,13.3,6.3c2.9,1.3,7,4.2,10.6,4.7
		c1.3-30.4,1.4-60.5-1.9-90.9c-0.9-8.3-1-19.5,8.5-22.8c9-3.1,17.5,4.3,20.2,12.4c1.8,5.5,1.8,11.6,2,17.4
		c0.3,6.7,0.4,13.3,0.7,19.9c0.4,14,0.7,28.1,1.5,42.1c0.8,13.8,1.7,27.8,3.9,41.4c2.3,13.8,7.1,27,12.9,39.6
		c5.4,11.7,11,23.7,17.9,34.5c6.9,10.9,17.2,18.2,27.6,25.5c0.8,0.5,1.2,1.2,1.4,1.9C487.1,601.9,487.3,605.4,484.7,605.9z"/>
	<path class="st0" d="M961,387.7c-0.4,35.1-16.3,66.5-36.4,94.5c-4.5,6.2-8.9,13.1-15.2,17.7c-6.8,5-15.8,5.5-23.9,6.5
		c-19.3,2.6-38.8,4.2-58,0.7c-18.9-3.4-37.2-9.1-56.3-11.8c-19.5-2.8-39.2-4.2-58.9-5.8c-19.8-1.6-39.6-3.2-59.4-4.8
		c-18.2-1.5-36.5-3.2-53.6-10.2c-1.7-0.7-2.5-2-2.7-3.4c-3.3-2.2-6.3-4.7-9.1-7.6c-9.5-10.1-14.6-24.4-17.3-37.8
		c-3-14.8-4-31.5-0.1-46.3c4.5-16.9,16.9-27.5,30.2-37.7c13.9-10.5,28.4-20.2,43.5-28.8c29.8-17.1,61.7-30.4,94.8-39.6
		c33.5-9.3,70.2-16.4,105.1-13.7c31.2,2.4,61.5,16.9,82.9,39.7C948.9,323.1,961.4,355.2,961,387.7z"/>
	<path class="st1" d="M815.8,226.6c-0.1-1.6-0.2-3.2-0.4-4.8c-0.2-2.5-1.7-4.1-3.6-4.9c-1.2-4.2-2.5-8.4-4-12.4
		c-3.7-9.7-8.3-19-13.3-27.9c-4.9-8.8-9.9-17.8-16.1-25.7c-12.9-16.3-32.3-19.3-51.7-22.3c-17.3-2.7-35.1-3.7-51.6,1.7
		c-0.3-0.2-0.6-0.4-0.9-0.6c-5.5-3.3-11.8-0.3-16.6,2.9c-3.9,2.6-7.5,5.8-10.6,9.3c-1.6,1.8-3.1,3.7-4.4,5.7
		c-1.7,2.5-3.5,5.3-3.7,8.3c-5.1,5.9-9.1,13-12.1,19.9c-5.2,11.7-8,24.3-10,36.9c-1.1,6.8-2.1,13.7-3.1,20.6
		c-0.4,0.4-0.7,0.8-0.9,1.4c-10.7,29.1-18.8,61.9-4.3,91.2c12.6,25.6,38.8,34.2,65.1,38.3c2.4,5.7,4.2,11.5,5.7,17.5
		c-1.6,0.5-2.9,2.1-2.9,3.8c0.1,4.5,1.3,8.6,3.3,12.4c0,1.7,0,3.4-0.2,5.1c-0.4,3.4,2.9,5.5,5.8,3.8c4-2.3,8-4.4,12.1-6.5
		c0.6,2,2.5,3.6,4.7,2.7c11.8-4.9,23.3-10.2,34.6-15.9c8.2-3.3,16.6-6.3,25.1-8.8c1.9-0.6,3.2-3,2.4-4.9c-0.6-1.6-1.2-3.1-1.7-4.7
		c1.7-0.5,3.3-2,3.4-4c1-15.4-10.7-33.6-2.1-48.1c3.2-5.4,8.5-6.2,14.1-6.7c0.1,0.5,0.4,1,0.6,1.4c5,6.9,14.5,7.8,21.3,2.8
		c5.9-4.3,9.2-11.7,11.5-19c8.8-8.8,14.3-20.6,15.1-33.3C827,248.3,821.9,237.5,815.8,226.6z"/>
	<path class="st4" d="M701.2,354.9c-20.9,2.5-43.1,3.5-62.7-5.6c-19.5-9-29.6-25.5-33.2-46.2c-1.9-11-2.6-22.4-1.2-33.5
		c1.3-10.8,5.1-20.8,8.3-31.1c6-19.7,4.9-41.1,13.4-60.1c8.3-18.6,23-33.9,41.2-43.1c2.6-1.3,0.4-5.8-2.3-4.7
		c-17.7,7.4-32.5,20.3-42.2,36.9c-11.5,19.7-10.9,42-16.4,63.4c-3,11.8-7.9,23-9.7,35c-1.8,12.2-1.2,24.6,0.7,36.8
		c3.4,20.7,11.9,38.6,30.4,49.7c22.3,13.4,49.3,12.7,74.2,9C705.7,360.8,705.4,354.4,701.2,354.9z"/>
	<path class="st4" d="M681.7,399.2c-0.1,2-0.4,4.2-0.8,6.3c-3.5,1.3-7,2.6-10.5,4c1.1-2.4,1.9-4.6,2.4-7.1c0.9-4.7,0.5-9.4-0.7-14
		c-2.2-9-7.2-18.8-3.9-28.1c1.2-3.3,5.4-1.5,5.9,1.2c1.3,6.4,2.5,12.6,4.5,18.9C680.5,386.5,682.1,392.8,681.7,399.2z"/>
	<path class="st4" d="M628,170.2c-2.9,0.2-4.2,4.8-1.2,5.9c8.5,3.1,15.5,7.7,20,15.8c4.6,8.3,4.5,18.1,0.8,26.8
		c-1.9,4.5-4.7,8.5-8,12.1c-3.5,3.7-7.6,6-11.6,9c-3.6,2.8-5.6,6.5-5.9,11c-0.3,4.2-0.1,10,4,12.2c1.3,0.7,3.3,0.3,4.2-0.9
		c3.1-4.2-1.1-9.3,1.9-13.6c1.4-2.1,4.6-3.3,6.6-4.8c2.1-1.5,4.1-3.2,6-5c7.6-7.3,13.2-17.2,14.5-27.7
		C661.6,192.9,648.8,168.6,628,170.2z"/>
	<path class="st4" d="M655.9,194c-4.3-10.4-11.3-20.9-22-25.7c-10.9-4.8-22.6-1.8-31.3,5.9c-17.5,15.3-29.2,52.1-5.6,67.5
		c12.3,8,32,6.4,43.9-1.5c4.1-2.7,4.5-8.1-0.1-6.6c-5.6,1.7-11.4,4.4-19.4,4.4c-4.8,0-11.6-0.2-16-2c-9.9-4-13.5-14.8-12.3-24.8
		c1.9-16.2,15.4-42,35.3-37.3c10.6,2.4,18.2,12.6,22.7,21.9C652.5,198.5,657.2,197.1,655.9,194z"/>
	<g>
		<g>
			<path class="st4" d="M680.4,224.2c0-3.6-2.9-6.2-5.6-8.3c-2.8-2.1-5.7-4.1-8.8-5.7c-2.4-1.3-5.5-2.5-8.3-2.1
				c-3.1,0.5-5.4,2.1-6.3,5.1c-0.4,1.2,0.6,2.5,1.7,2.9c1.3,0.4,2.4-0.2,3.1-1.3c-0.2,0.3,0.1,0,0,0c0.1,0,0.2-0.1,0.2-0.1
				c0.1,0,0.2,0,0.2,0c0.2,0,0.8,0.1,0.1,0c0.2,0,0.4,0.1,0.6,0.1c0.5,0.1,1,0.2,1.4,0.3c0.2,0.1,0.4,0.1,0.6,0.2
				c0.1,0,0.1,0,0.2,0.1c0.5,0.2,0.9,0.4,1.3,0.6c1.2,0.6,2.3,1.3,3.4,2c0,0,0.4,0.3,0.6,0.4c0.1,0.1,0.5,0.3,0.5,0.4
				c0.6,0.4,1.2,0.9,1.9,1.3c1.1,0.8,2.2,1.7,3.3,2.6c0.3,0.2,1.3,0.9,1.3,1.2c-0.3-0.4-0.4-0.5-0.2-0.3c0.1,0.1,0.2,0.2,0.3,0.3
				c0.1,0.2,0.3,0.4,0.4,0.6c0.1,0.1,0.1,0.1,0.1,0.2c0.1,0.4,0.2,0.7,0.3,1.1c-0.3,1.8,1,3.3,2.9,3.3c1.7,0,2.9-0.9,3.7-2.3
				C680,226.1,680.4,225.3,680.4,224.2z"/>
		</g>
	</g>
	<g>
		<path class="st4" d="M755.9,201.3c-12.5-19-39.6-19-58-9.3c-14.9,7.8-29.1,24.5-26.8,42.3c2.3,18.5,17.4,33.7,35.1,38.4
			c34.4,9,64.9-26.1,55.2-59.2C760.2,209.1,758.4,205,755.9,201.3z M750,246.6c-7.6,12-22.8,19.4-36.9,17.5
			c-13.8-1.9-26.2-11.6-30.7-24.9c-10.6-30.9,35.8-57.7,60.2-40.3C757.2,209.2,759.1,232.1,750,246.6z"/>
	</g>
	<path class="st4" d="M716.6,226.5c-0.5-0.9-1.3-1.7-2.6-2c-5.7-1.4-8.5,7.2-8.1,10.3c0.2,1.5,1.1,2.7,3.1,3.1
		c2.8,0.5,5.3-1.8,6.4-3.6c1.1-1.8,2-4,1.7-6.1C717,227.6,716.8,227,716.6,226.5z"/>
	<path class="st4" d="M667,276.3c-2.6-0.2-5,1.4-7.4,2.3c-2.1,0.7-4.2,1.3-6.4,1.7c-4.6,0.8-9.4,0.9-14.1,0.6
		c-1.3-0.1-2.4,1.3-2.5,2.5c-0.1,1.4,0.8,2.5,2.1,2.8c5,1.2,10.2,1.1,15.3,0.3c2.6-0.4,5.1-1,7.6-1.8c2.7-0.9,5.8-1.7,7.4-4.2
		C670.1,279,668.8,276.5,667,276.3z"/>
	<path class="st4" d="M820.1,270.4c-4-10.9-15.4-15.5-26.3-14.3c-11.1,1.3-21,7.9-25.3,18.3c-1.3,3.1,3,5.1,4.7,2.2
		c3.7-6.5,10.8-11.2,18.1-12.7c7.2-1.5,17.3,0.1,20.8,7.4c7.3,15.4-3.1,34.8-19,38.9c-4.6,1.2-9.5,1.2-14.1,0.2
		c-4.9-1.1-8.6-3.7-12.9-6.1c-3.1-1.7-7.2,2.6-4.7,5.5c7,8,20.2,10.5,30.2,8.8c10.9-1.8,20-8.2,25.5-17.8
		C822.3,291.9,823.7,280.3,820.1,270.4z"/>
	<path class="st4" d="M803.6,276.4c-9.4,0.8-19.1,3.3-27.3,7.9c-3.3,1.9-0.6,7.3,3,6c4.1-1.5,8.2-3.1,12.4-4.1
		c3.1-0.8,6.1-1.3,9.3-1.7c2,0.6,4.2,0,5.8-1.7C809,280.3,806.8,276.1,803.6,276.4z"/>
	<path class="st4" d="M791.9,291.8c0-2.7-0.5-5.5-0.7-8.2c-0.1-1.4-1.2-2.5-2.6-2.6c-1.3-0.1-2.8,0.8-2.9,2.2
		c-0.3,2.9-0.7,5.8-0.7,8.7c0,1.3-0.1,2.7-0.1,4c0,1.6,0.3,3,0.9,4.5c0.4,1.1,1.3,1.8,2.5,1.9c1,0.1,2.3-0.5,2.7-1.6
		c0.3-0.8,0.7-1.6,0.8-2.4c0.1-0.8,0.1-1.6,0.2-2.4C792,294.6,791.9,293.1,791.9,291.8z"/>
	<path class="st4" d="M849.8,176c-17.7-23-42.4-37.8-67.5-51.4c-26.9-14.5-61.7-18.3-91.6-25.5c-11.8-2.8-26.2-4.9-34.1,4.2
		c-3.9,4.4-5.1,10.6-8.5,15.4c-3.3,4.9-8.5,8.1-13.3,11.6c-4.8,3.5-9.5,7.7-11.2,13.4c-1.7,5.7,1.1,13,6.9,14.2
		c10.3-8.6,20.6-17.1,30.9-25.7c-0.7,1.9-1.3,3.8-2,5.7c18,2.3,35.9,4.6,53.9,6.9c13.5,1.7,27.7,3.8,38.2,12.5
		c13.8,11.5,12.5,21.5,11.9,36c-0.7,16.3,11.2,23.2,12.2,36.8c0.6,8-7.9,15.3-11,22.1c-4.1,8.8-6.4,18.3-7,28
		c-0.3,3.5,2.8,5.4,5.8,3.9c5.9-2.9,12.2-8.5,13.6-15.2c3.2-3.2,6.8-6.3,10.9-8.6c8.6-3.1,18.8-1.5,26.2,5.1
		c0.2,0.1,0.4,0.2,0.6,0.3c0.9,6.8,1.9,13.7,2.9,20.5c0.2,1.6,1.2,2.6,2.5,3.1c-1.5,3.8-3.6,7.5-6.1,10.7
		c-5.4,6.9-10.8,9.4-18.6,13.4c-7.8,3.9-11.9,5.3-19.2,1.4c0.6-0.4-4.5,0.4-3.9,0c2.3-1.7,0.5-6-2.3-4.7
		c-7.2,3.2-13.8,8.4-12.9,17.2c0.5,4.8,1.7,9.6,2.7,14.3c1,4.9,2,9.7,2.9,14.7c0.7,3.3,5.5,3,6.7,0.4c1.2-2.3,2.5-4.6,3.8-6.9
		c1.3-0.5,2.6-1.1,3.7-1.7c13.3-6.9,26.4-14.4,37.5-24.5c20.7-18.8,37.6-45.6,46.4-72.1C869.3,225.2,866.9,198.2,849.8,176z"/>
	<path class="st4" d="M646.6,213.6c-0.2-0.7-0.7-1.3-1.4-1.7c-0.5-0.3-1-0.5-1.6-0.5c-0.4,0-0.8,0-1.2,0.2c-0.3,0-0.7,0-1,0.2
		c-0.9,0.3-1.8,0.6-2.6,1.3c-0.5,0.4-0.9,0.8-1.3,1.2c-0.4,0.5-0.7,1-1.1,1.5c-0.5,0.8-0.8,1.7-1.1,2.6c-0.1,0.3-0.1,0.7-0.2,1.1
		c0,0.6-0.1,1.2,0,1.8c0.1,1.2,0.8,2.3,1.9,2.8c0.5,0.3,1.1,0.4,1.7,0.3c0.6,0,1.2-0.2,1.7-0.6c0.6-0.3,1.2-0.7,1.8-1.2
		c0.8-0.6,1.5-1.3,2.1-2.1c1.2-1.6,2-3.3,2.4-5.2C646.8,214.8,646.7,214.1,646.6,213.6z"/>
	<path class="st4" d="M772.3,373.2c-2.4,0.8-4.7,1.6-7.1,2.4c-0.7-2.7-1.3-5.4-1.6-8.2c-0.8-6.3-1-13.5,1.4-19.4
		c1-2.6,5.1-1.7,5.2,1c0.1,3-0.2,5.9-0.1,8.9c0.1,2.9,0.2,5.8,0.7,8.7C771.1,368.8,771.7,371,772.3,373.2z"/>
	<path class="st4" d="M888.9,345.9c-38.2,10.9-76.2,22.7-113.8,35.3c-2.4,0.8-4.7,1.6-7.1,2.4c-30.8,10.4-61.5,21.4-92,32.9
		c-2.2,0.8-4.4,1.7-6.6,2.5c-5.8,2.1-11.6,4.4-17.3,6.6c-1.7,0.6-3.9-0.2-4.8-1.7c-6.5-10.4-9.3-22.3-8.4-34.6
		c0.8-11,4.9-24.8,14.1-31.5c2-1.5,4.4,0.9,3.5,3c-2.1,4.7-5,9-6.7,13.9c-1.7,4.7-2.7,9.7-3,14.7c-0.5,9.3,1.5,18.6,5.9,26.8
		c5.9-2.3,11.8-4.6,17.7-6.8c3.5-1.3,7-2.7,10.5-4c27.9-10.5,56-20.5,84.3-30c2.3-0.8,4.7-1.6,7.1-2.4
		C810,360.6,848,348.9,886.2,338C891.4,336.5,894.1,344.4,888.9,345.9z"/>
	<path class="st4" d="M887.5,337c-6.8-10.6-16.7-19.1-28.2-24.3c-5.6-2.6-11.6-4.5-17.7-5.5c-3.1-0.5-6.1-0.7-9.2-0.8
		c-3.1,0-6.4-0.2-8.7,2c-0.9,0.9-0.8,2.8,0.3,3.5c2.3,1.6,4.9,1.2,7.6,1.3c2.8,0.1,5.6,0.5,8.3,1c5.6,1,11.1,2.7,16.2,5.2
		c10.1,4.9,18.8,12.5,25,21.9C883.7,345.6,890.2,341.2,887.5,337z"/>
	<path class="st4" d="M675.9,390.6c-0.4-6.7-2.2-13.1-4.6-19.3c0.8-0.6,1.4-1.6,1.1-2.9c-1-5-3.9-9.7-9.7-9.1
		c-5.7,0.5-9.5,6-11.4,10.8c-0.2,0.6-0.4,1.2-0.6,1.8c0,0.1-0.1,0.1-0.1,0.2c-0.4,1.1-0.7,2.3-1,3.4c-0.5,0.2-1,0.5-1.4,1
		c-4.3,5.5-5.3,12.4-4.6,19.2c0.7,6.7,2.1,14.6,6.9,19.7c5.4,5.7,14.6,1.1,19.3-3.5C675.2,406.6,676.3,397.8,675.9,390.6z"/>
	<path class="st4" d="M879.9,334.1c-2.4-0.8-4.6-2-6.7-3.3c-0.5-0.9-1-1.8-1.7-2.6c-3.7-5.2-9.3-8.4-15.5-10.7
		c-9.6-3.6-19.4-7.1-29.7-6.5c-2.9,0.1-4.8,2.6-5.2,5.2c-5.9,1.5-11.6,4.1-16.8,6.8c-7.9,4.1-15.5,8.7-22.6,14c-2.6,2-5.2,4.2-6.7,7
		c-2.8-0.2-5.6,1.4-6.3,4.9c-0.5,2.8-0.9,5.8-0.6,8.7c0,0.3,0.2,0.9,0.4,1.5c-0.9,1.1-1.4,2.4-1.2,4.1c0.3,3,0.2,7.3,2.6,9.5
		c2.8,2.6,6.1,1.6,9.3,0.5c8.4-2.9,16.6-6.7,24.9-9.8c3-1.1,6-2.2,9-3.3c0.2,0,0.4,0.1,0.6,0c11.2-1.2,22.4-4.6,33.4-7
		c10.9-2.4,21.8-5.2,32-9.9C882.6,341.5,884.4,335.6,879.9,334.1z"/>
	<path class="st4" d="M730.3,230.5c-0.4-0.8-0.8-1.6-1.3-2.4c-0.8-1.2-1.6-2.4-2.5-3.5c-2.1-2.4-4.6-4.4-7.7-5.3
		c-5-1.4-12.1,0.7-13,6.5c-0.4,2.8,3.3,4,4.7,1.6c0.2-0.3,0.2-0.3,0-0.1c0.1-0.2,0.2-0.4,0.4-0.6c0.3-0.4,0.4-0.5,0.6-0.7
		c0.3-0.2,0.5-0.4,0.7-0.5c0.5-0.2,0.9-0.4,1.3-0.5c0.2,0,0.3-0.1,0.5-0.1c0,0,0.4-0.1,0.5-0.1c0.5-0.1,0.9-0.1,1.4-0.1
		c0.1,0,0.3,0,0.4,0c0.2,0,0.4,0.1,0.6,0.1c0.2,0,0.5,0.1,0.7,0.2c0.1,0,0.1,0.1,0.2,0.1c0.4,0.2,0.8,0.4,1.2,0.6
		c0.1,0.1,0.4,0.3,0.5,0.3c0.2,0.2,0.5,0.4,0.7,0.6c0.4,0.4,0.9,0.8,1.2,1.2c0.1,0.1,0.2,0.2,0.2,0.3c0.2,0.2,0.4,0.5,0.6,0.7
		c0.7,1,1.4,2,1.9,3c0.3,0.5,0.6,1.1,1,1.6c0.5,0.7,1,1.1,1.6,1.7c1.5,1.5,4.7,0,4.3-2.2C730.7,232.2,730.7,231.3,730.3,230.5z"/>
	<g>
		<path class="st4" d="M650.8,215.3c-0.8-2.1-2.2-3.8-4.1-5c-3.7-2.3-8.7-1.3-11.7,1.7c-0.9,0.9-0.8,2.6,0.1,3.5
			c0.8,0.9,2.5,1.3,3.5,0.5c0.3-0.2,0.5-0.4,0.8-0.6c0.1-0.1,0.2-0.1,0.3-0.2c0.4-0.2,0.7-0.2,1-0.3c0.1,0,0.3,0,0.4,0
			c0.2,0,0.4,0,0.6,0c0.3,0,0.4,0,0.5,0c0.2,0,0.3,0.1,0.5,0.1c0.2,0,0.3,0.1,0.5,0.1c-0.1,0-0.1,0-0.2,0c0.2,0.1,0.4,0.2,0.5,0.2
			c0,0,0.2,0.1,0.3,0.1c0.2,0.2,0.4,0.3,0.5,0.4c0.1,0.1,0.2,0.2,0.3,0.3c0.2,0.2,0.3,0.4,0.5,0.7c0,0.1,0.1,0.2,0.1,0.2
			c0.1,0.4,0.3,0.7,0.3,1c0,0.2,0.1,0.3,0,0.4c0,0.3,0,0.6,0,0.8c0,0.2,0,0.3,0,0.5c0,0.2,0.1,0.4,0.2,0.6c0,0.1,0,0.3,0,0.4
			c0,1.1,1,2.2,2.1,2.4c1.2,0.2,2.3-0.4,2.9-1.4c0-0.1,0.1-0.1,0.1-0.2c0.4-0.4,0.6-0.9,0.7-1.4c0.1-0.6,0.1-1.2,0.1-1.8
			C651.3,217.2,651.1,216.2,650.8,215.3z"/>
		<path class="st4" d="M642.8,215C642.6,214.9,642.4,214.9,642.8,215L642.8,215z"/>
		<path class="st4" d="M645.3,217.9c0,0.2,0,0.4,0,0.3C645.3,218.1,645.3,218,645.3,217.9z"/>
	</g>
	<path class="st4" d="M298.6,268.9c-0.5,12.2-2.1,24.3-3.2,36.5c-0.9,10.7-1.7,21.4-2.4,32.1c-2.5-0.1-5.1-0.1-7.7-0.1
		c0.7-11.2,1.6-22.3,2.5-33.5c1-11.8,2.7-23.6,3.1-35.4c0.3-9.7-0.8-20.2-7.9-27.6c-7.7-7.9-19.2-13.1-29-18
		c-9.7-4.9-19.8-9.3-30-13.1c-19.6-7.3-40.6-12.1-57.6-24.9c-14.7-11-24.9-27-32-43.7c-3.8-8.8-6.7-17.8-9.1-27
		c-2.5-9.5-4.1-21.9-13.5-27.3c-9.5-5.4-16,2.4-17.5,11.1c-1.5,8.2,0.1,16.7,1.7,24.8c6.9,36.5,23.6,72.2,55.9,92.5
		c3,1.9,0.8,6.8-2.5,5.2c-39.2-19.6-58.4-66.9-63.2-108.3c-1.6-13.8,1.9-35.7,20.2-34.8c22.8,1.1,24.9,31.2,30.2,47.6
		c6.5,19.8,16.3,39.2,32.8,52.5c18.5,14.9,43,19.4,64.6,28c11.4,4.6,22.5,9.8,33.3,15.8c9.1,5.1,19.5,10.4,25.3,19.4
		C297.9,249,298.9,259.1,298.6,268.9z"/>
	<path class="st4" d="M126.9,224.6c-11.7-10.3-25.8-17.7-37.6-27.9c-11.5-10-18.7-21.5-22.1-36.4c-3.4-15-4.6-30.8-5.7-46
		c-0.5-7.1-0.9-15.9,4.9-21.2c7.4-6.7,17.3-0.2,19.5,7.3c1.4,5,8.1,0.9,6.8-4c-1.9-7-8.4-11.7-15.6-13.8c-7.4-2.2-14.9,1.4-19.4,7.4
		c-5.3,7.1-5.5,16.3-5,24.8c0.7,10.5,1.8,21,3.1,31.4c2.3,18.1,7.1,35.5,20,48.9c6.5,6.8,14.5,12,22.2,17.3
		c8.4,5.7,16.8,12.2,25.7,17C126.7,230.9,129.3,226.7,126.9,224.6z"/>
	<path class="st4" d="M105.8,223.4c-14.5-3.6-27-9.4-39.7-17.3c-10.7-6.7-24-13.9-29-26.2c-2.7-6.7-3.1-14.2-3.7-21.4
		c-0.5-6.5-0.9-13.1-0.5-19.7c0.5-8.5,5.6-38.6,19.8-30.9c3.9,2.1,7.6-3.6,4.2-6.4c-14.2-11.7-26.4,9.2-29.7,20.5
		c-4.7,16.2-3.6,35.3-0.5,51.7c3.1,16.9,14.7,26.4,28.6,35.1c15,9.4,31.9,20.3,50.1,21.3C109.4,230.4,109.3,224.3,105.8,223.4z"/>
	<path class="st4" d="M166.4,268.2c-0.6,3.2-1.3,6.4-1.9,9.6c-0.1,0.7-0.3,1.3-0.4,2c-1.9-1.5-3.8-2.9-5.8-4.4
		c-15.3-11.3-32.2-20.1-49.9-27.8c-24-10.4-50.4-15.8-73.7-27.9C21.1,212.7,8.7,202.3,8,186c-0.7-16.7,7.3-34.4,15.2-48.7
		c2.7-4.9,10.5-1.2,7.8,3.8c-6.4,11.8-12.4,25.2-13.9,38.7c-0.8,6.7,0.1,13.3,4.2,18.8c3.5,4.8,8.9,8.6,14,11.7
		c11.2,6.8,23.8,10.9,36.1,15.3c20.3,7.2,40.4,15.4,60.3,23.7c10.2,4.2,20.5,9.1,29.8,15.3C163,265.7,164.7,266.9,166.4,268.2z"/>
	<path class="st4" d="M166.4,267.7c0,0.1,0,0.3-0.1,0.4c-0.6,3.2-1.3,6.4-1.9,9.6c-0.1,0.7-0.3,1.3-0.4,2
		c-3.7,18.8-7.8,37.5-11.8,56.3c-3.1-0.1-6.3-0.2-9.6-0.2c4.7-20.2,10-40.4,15.6-60.4c0.2-0.7,0.4-1.4,0.6-2.1
		c0.8-2.9,1.7-5.8,2.5-8.7c0-0.1,0-0.2,0.1-0.3C163.1,265.4,164.8,266.5,166.4,267.7z"/>
	<path class="st4" d="M473.2,581.5c-34.7-36.1-43.9-87.3-45.3-135.5c-0.4-13.9-0.6-27.8-2.3-41.6c-1.4-11.4-3-24.1-9.1-34.1
		c-4.5-7.4-12.5-13.1-21.4-9.8c-8.2,3-11.2,12.4-12.1,20.2c-1.5,13.9,0.6,28.5,1.2,42.4c0.8,16.7,1.6,33.4,2.8,50.1
		c-0.1-1.4-20.9-6.7-23.1-7.6c-8.2-3.2-17.1-10.7-25.5-12c-8.2-1.3-16,4.7-20.8,10.7c-2.3,2.8-6,6.7-5.4,10.7
		c0.1,0.6,0.3,1.1,0.6,1.6c-2.2,0.2-4.4,0.7-6.5,1.6c-10.5,4.5-13,18-12.9,28.2c0,0.6,0.3,1.2,0.6,1.7c-3.9,1.4-7.5,3.6-10.3,7.3
		c-8.2,10.6-8.7,29.7-4.2,41.8c4.8,12.7,14.6,28.5,28,33.1c7,2.4,15.7,1.6,20.8-4.2c0.7-0.8,1.3-1.7,1.8-2.7
		c4.5,13.7,8.7,27.6,13.6,41.2c4.4,12.1,10.6,24,21.9,30.9c11.1,6.8,24.7,8.3,36.9,12.5c11.5,9.1,23.3,17.7,33.9,27.9
		c3.8,3.6,9.1-2.6,5.3-6.1c-9.5-8.8-19.9-16.2-29.9-24.3c-12.7-10.2-29.1-9.4-42.4-18.5c-11.8-8.1-14.9-18.7-19.7-31.1
		c-5.7-14.9-9.1-30.5-15.3-45.3c-2.1-5.1-5-9.9-9.7-13.1c-2.4-1.7-5.2-2.6-7.8-3.8c-2.5-1.1-4.2-3.1-6.9-3.6c-1.2-0.2-2.8,0.6-2.9,2
		c-1.1,9.6,15.4,10.3,16.6,20.2c0.8,7.2-4.3,12.2-11.4,10.8c-7.1-1.5-12.3-7.5-16.3-13.2c-4.2-6.2-8.8-13.2-10.1-20.7
		c-1.2-7.1-0.9-15.6,1.3-22.4c5.5-17.3,27.6-11.2,40.8-8.3c17.2,3.8,33.5,10.3,50.5,14.8c2.9,0.8,4.2-3.6,1.6-4.9
		c-16.4-8.3-34.4-14.5-52.3-18.6c-8.1-1.8-18.4-4.1-27.5-3c0-0.2,0.1-0.4,0.1-0.7c0-0.4,0-0.9,0-1.3c0-0.1,0-0.1,0-0.2
		c0.5-5.1,3.3-14,8-16.8c2.9-1.7,6.6-1.9,9.9-1.5c8.4,1.1,16.8,4.9,24.6,7.8c16,5.9,31.8,12.7,48.2,17.5c2.8,0.8,3.7-3.3,1.5-4.5
		c-19-10.9-39.9-19.3-60.5-26.7c-4-1.4-8.3-2.8-12.5-3.4c0.3-0.7,0.4-1.4,0.1-2.1c1.6-6.2,8.2-11.1,14.2-12.2
		c7.4-1.3,17.4,6.7,24.1,9.6c13.9,6,28.4,10.1,42.9,14.4c4.3,1.3,6.8-6,2.5-7.5c-3.5-1.3-7.1-2.4-10.7-3.6c0.4-0.6,0.7-1.2,0.7-2.1
		c-0.6-26.8-2.1-53.5-3.4-80.2c-0.3-7.3-1.5-21.7,7-25.3c10.6-4.5,15.9,12.8,17.6,19.8c6,24.9,4.4,50.9,6,76.3
		c1.4,21.4,4.9,42.8,11.6,63.2c4.2,12.6,9.7,24.8,16.7,36.1c3.7,5.9,7,12.2,11.6,17.5c2.3,2.6,4.9,5.3,8.1,6.9
		c5,2.5,4.8-0.3,6.5-4.9C474.9,582.3,474.1,581.9,473.2,581.5z"/>
	<path class="st0" d="M896.1,578c-3.2,47.2-8.8,94.4-14.2,141.5c-2.7,23.5-4.7,47.2-8.4,70.6c-2.9,18.9-10.4,35.8-24.5,49.3
		c-28,26.8-72.4,39.6-111,38.8c-45.1-0.9-87-19.9-126.2-40c-41.4-21.3-81.1-45.6-119.7-71.3c-9.7-6.4-19.3-13-28.8-19.5
		c-8.4-5.8-17.4-11.4-24.5-18.8c-12.4-12.8-19.8-31.7-8.6-47.6c0.2-0.2,0.4-0.4,0.6-0.5c9.2-17.6,18.3-35.2,26.7-53.3
		c4.9-10.6,9.4-21.3,13.7-32.1c0.8-1.9,1.5-3.8,2.2-5.8c0.8-2.1,1.6-4.3,2.4-6.5c2.9,1.1,5.7,2.3,8.6,3.4
		c13.7,5.5,27.4,10.9,41.3,16c36.8,13.4,73.3,27.8,109.8,41.7c14.4,5.5,28.8,11,43.2,16.5c3.1-33.7,5.9-67.6,16.5-100.1
		c11.8-35.9,34-70.8,69.2-88.9c31.2-16,71.2-16.1,99.9,5.3C896.1,500.2,898.5,542.3,896.1,578z"/>
	<path class="st2" d="M717.7,663.2c-39.9-15.9-80.3-30.5-121.1-44.1c-19.9-6.7-39.9-12.9-60-18.9c-20.7-6.2-41.5-12.7-62.5-17.4
		c-4-0.9-6.3,5.6-2.3,6.9c20.2,6.7,40.8,12.3,61.1,18.6c20.3,6.3,40.5,12.9,60.7,19.6c40.4,13.4,80.5,28,120.2,43.4
		C719.1,673.2,723,665.3,717.7,663.2z"/>
	<path class="st1" d="M774.6,483.9c-9.8-13.5-33.3,0.9-43.3,7.4c-13.9,9.1-26.1,21.6-33.2,36.8c-8.6,18.3-9.3,40.2-12.1,60
		c-1.6,11.1-3.2,22.1-4.6,33.2c-0.7,5.5-1.4,11.1-2,16.6c-0.6,5.3-1.9,11-1.1,16.3c0.4,2.3,3.5,3.2,4.6,0.9c3.9-8.1,4.2-19,5.7-27.9
		c1.7-9.9,3.1-19.8,4.6-29.8c2.8-18.4,4.2-37.7,9.3-55.6c4.2-14.8,13.7-27.6,25.6-37.2c5.7-4.6,11.9-8.6,18.5-11.9
		c3.8-1.9,7.8-3.8,12-4.7c4.5-1,8.5-0.1,13,0.6C774,488.9,776.2,486.1,774.6,483.9z"/>
	<path class="st1" d="M889.9,751.3c-3.7,18.5-9,36.8-15.8,54.5c-4.1,10.6-8.7,21.9-14.5,32.3c-2.9-0.1-5.7-0.2-8.6-0.3
		c2.5-4.5,5-9.1,7.2-13.8c4.4-9.5,8.3-19.1,11.7-29c12.4-36.5,18.2-75.2,20-113.7c1-21,0.8-42,0.2-63c-0.4-10.7-0.9-21.4-1.4-32
		c-0.5-9.6-2.3-20.1-0.9-29.6c0.5-3.3,5.7-3.7,6.6-0.4c1.7,6,1.5,12.3,1.9,18.5c0.3,5.9,0.6,11.8,0.9,17.7
		c0.6,12.2,1.1,24.3,1.4,36.5C899.4,669.8,897.9,711,889.9,751.3z"/>
	<path class="st1" d="M573.7,445.3c-1.3,1-3.4,0.8-4.7,0.1c-2.9-1.5-3.8-4.4-4.7-7.4c-1-3.2-1.8-6.4-2.5-9.7
		c-1.3-6.3-2.2-12.7-2.6-19.2c-0.2-3.4-0.2-6.8-0.1-10.1c2.9,0.6,5.9,1.2,8.8,1.9c0,1.7,0.1,3.4,0.2,5c0.3,5.5,0.9,10.9,2,16.2
		c0.6,2.9,1.3,5.7,2.1,8.5c0.3,1.2,0.7,2.4,1.1,3.6c0.2,0.8,0.5,1.5,0.8,2.3C577.8,438.5,576.5,443.1,573.7,445.3z"/>
	<path class="st1" d="M298.6,473.9c-0.2,5.3-7.1,5.5-8,0.5c-1.3-6.6-1.1-13.6-1.2-20.3c0-4,0-8,0.2-12v1.5c2.7-0.4,5.4-0.9,8.1-1.4
		c-0.1,4.1,0,8.1,0,12.2C297.9,460.9,298.7,467.4,298.6,473.9z"/>
	<path class="st3" d="M525.9,202.3c-0.8,17.8-17,30.1-33.3,33.9c-16.4,3.8-31.7-6.7-37.1-22.1c-7-20,4.9-43.3,26-47.9
		C502.9,161.7,526.9,180,525.9,202.3z"/>
</g>
</svg>
