<?xml version="1.0" encoding="utf-8"?>
<!-- Generator: Adobe Illustrator 26.5.0, SVG Export Plug-In . SVG Version: 6.00 Build 0)  -->
<svg version="1.1" id="Warstwa_1" xmlns="http://www.w3.org/2000/svg" xmlns:xlink="http://www.w3.org/1999/xlink" x="0px" y="0px"
	 viewBox="0 0 1418 452.4" style="enable-background:new 0 0 1418 452.4;" xml:space="preserve">
<style type="text/css">
	.st0{fill:#FFFFFF;}
	.st1{fill:url(#SVGID_1_);}
</style>
<g>
	<path class="st0" d="M576,121.6h37.4c12.4,0,45.9,1.5,45.9,39.5c0,25.2-15,37.5-45.9,38.6v34H576V121.6z"/>
	<path class="st0" d="M682.8,177.3c0-33.2,22.9-57.6,54.2-57.6c31.1,0,54.1,24.3,54.1,57.6c0,33.5-22.9,57.9-53.9,57.9
		C705.6,235.3,682.8,210.8,682.8,177.3z"/>
	<path class="st0" d="M814.6,194.2c19.8,0,26.6-5.4,37.8-35.2c9.5-25.8,22.6-37.3,47.3-37.3h5v39.2h-0.1c-11.6,0-16,11.4-22.1,29.3
		c-10.1,30-28.8,43.3-58.2,43.3h-9.8L814.6,194.2L814.6,194.2z"/>
	<path class="st0" d="M928.6,121.6h91.7v39.3h-25.9v72.5H957V161h-28.5L928.6,121.6L928.6,121.6z"/>
	<path class="st0" d="M1142.2,116.9l55.5,116.6h-111.1L1142.2,116.9z"/>
	<path class="st0" d="M1222.4,121.6h37.4c12.4,0,45.9,1.5,45.9,39.5c0,25.2-15,37.5-45.9,38.6v34h-37.4V121.6L1222.4,121.6z"/>
	<path class="st0" d="M1333,121.6h37.4c12.4,0,45.9,1.5,45.9,39.5c0,25.2-15,37.5-45.9,38.6v34H1333V121.6z"/>
</g>
<linearGradient id="SVGID_1_" gradientUnits="userSpaceOnUse" x1="-29087.8477" y1="-20356.4434" x2="-22507.709" y2="-20357.041" gradientTransform="matrix(5.440000e-02 0 0 -5.440000e-02 1610.8549 -881.2969)">
	<stop  offset="0" style="stop-color:#61C0C2"/>
	<stop  offset="1" style="stop-color:#5E71B5"/>
</linearGradient>
<path class="st1" d="M299.8,207v-45.4V116l-43.4-21l0,0l-84.3-40.7l-27.2-13.1l-6-2.8L44.5,84v214.9v71.3v28l33.2-16.1v-11.9v-71.3
	v-199l73.2-35.2l5-2.5l33.2,16l-78,37.7v250.2v28.2v3.9l-99.6,48v-20.3h-0.2v-55.7V67.8l94.4-45.6l2.6-1.3l30.6-14.7l16.7,8l0,0
	l11,5.3l5.7,2.8l33.2,16.1l33.1,15.8L333,99.8l0,0v123.1l0,0l-78.1,37.8l-33.2-16l2.9-1.4l30.7-14.9l0,0L299.8,207z M221.7,30.4
	l16.9-8.2l33.3-15.9l30.6,14.8l2.6,1.3L399.5,68v93.7v93.7L302.4,302l-30.6,14.8L239,301.3l0.1-0.1L167,266.4l-39.3-18.9l-3.9-1.8
	v-32.1l23.2,11.3l0,0l8.6,4.1l49.8,24.1l33.2,16.1l0,0l33.2,16.1l94.5-45.6V84.1l-94.4-45.6l-17,7.9L221.7,30.4L221.7,30.4z
	 M123.8,277.3l15.1,7.3l16.8-8.2l33.2,16.1l-33.4,16.2l-16.4,8l-15.3-7.4V277.3L123.8,277.3z"/>
<g>
	<path class="st0" d="M604.9,360.9c0.2-1.3,0.2-2.6,0.3-3.9H618c-0.1,4.7-0.4,9.1-0.9,13.8c-7.1,1.9-14.2,2.6-21.2,2.6
		c-7.1,0-14.2-0.7-21.3-2.6c-0.6-6.3-1-12.3-1-18.7c0-6.4,0.3-12.3,1-18.7c7.1-1.9,14.2-2.6,21.3-2.6s14.1,0.6,21.2,1.9
		c0.5,5.1,0.9,9.7,1,14.6h-12.8c0-1.3-0.2-2.6-0.3-4c-3-0.6-6.2-0.7-9.1-0.7c-3,0-6.2,0-9.2,0.7c-0.2,3-0.3,5.7-0.3,8.6
		c0,3,0.1,5.7,0.3,8.6c3,0.6,6.2,0.7,9.2,0.7C598.8,361.4,601.9,361.4,604.9,360.9z"/>
	<path class="st0" d="M644.6,354.6h0.4c1.2,0,2.3,0,3.4-0.1c0.1-1.1,0.2-2.4,0.2-3.6s-0.1-2.4-0.2-3.7c-2.5-0.3-4.6-0.6-7.8-0.6
		c-2.6,0-5,0.1-7.6,0.3v25.8h-11.2v-36c6.3-0.4,12.6-0.6,18.8-0.6c5.4,0,13,0.3,18.6,2c0.4,3.7,0.8,7.6,0.8,11.1
		c0,4.6,0,9.4-0.8,14.3l-4.5,0.3l6.7,8.7h-14l-13.4-17v-1.1L644.6,354.6z"/>
	<path class="st0" d="M691.5,358.9h-16.3v2.9c3.8,0.6,8,0.6,11.8,0.6c4.1,0,9,0,13.1-0.6v11c-6,0.4-11.8,0.6-17.6,0.6
		c-6.1,0-12.4-0.1-18.5-0.6v-35.8c6.5-0.4,13.4-0.6,20-0.6c5.3,0,10.5,0.1,16,0.6v11c-4.4-0.6-10-0.6-14.4-0.6c-3.4,0-7,0-10.4,0.4
		v3.1h16.3V358.9z"/>
	<path class="st0" d="M734.1,336.7l10.3,36h-11.2l-1.4-4.7h-18.1l-1.3,4.7h-11.2l10.4-36c4.1-0.4,7.5-0.6,11.2-0.6
		C726.5,336.2,730,336.3,734.1,336.7z M719.6,347.7l-2.7,9.4h12l-2.7-9.4c-0.5-0.1-2.4-0.1-3.3-0.1
		C722,347.6,720.1,347.7,719.6,347.7z"/>
	<path class="st0" d="M779,348.2c-6.8-0.3-10.8-0.4-13.6-0.4v25h-11.2v-25c-2.7,0-6.8,0.3-13.6,0.4v-11.4c6.4-0.4,12.8-0.6,19.2-0.6
		s12.7,0.1,19.2,0.6L779,348.2L779,348.2z"/>
	<path class="st0" d="M808.6,358.9h-16.3v2.9c3.8,0.6,8,0.6,11.8,0.6c4.1,0,9,0,13.1-0.6v11c-6,0.4-11.8,0.6-17.6,0.6
		c-6.1,0-12.4-0.1-18.5-0.6v-35.8c6.5-0.4,13.4-0.6,20-0.6c5.3,0,10.5,0.1,16,0.6v11c-4.4-0.6-10-0.6-14.4-0.6c-3.4,0-7,0-10.4,0.4
		v3.1h16.3V358.9z"/>
	<path class="st0" d="M866.5,347l7.4-15.4h12.6L873.2,359c-2.1,0.3-3.6,0.4-5.6,0.6v13.3h-12.8v-13.3c-2,0-3.5-0.1-5.6-0.6
		l-13.4-27.4h12.5l7.5,15.4c1,0.1,3.8,0.3,5.4,0.3C862.6,347.3,865.4,347.2,866.5,347z"/>
	<path class="st0" d="M908.3,373.3c-6.4,0-12.8-0.6-19.3-1.7c-0.3-5.7-0.5-11.1-0.5-16.8c0-5.7,0.2-11.1,0.5-16.8
		c6.5-1.3,12.9-1.7,19.3-1.7c6.4,0,12.8,0.6,19.3,1.7c0.3,5.7,0.5,11.1,0.5,16.8c0,5.7-0.2,11.1-0.5,16.8
		C921.2,372.8,914.8,373.3,908.3,373.3z M900.5,361.3c2.5,0.4,5.3,0.6,7.8,0.6s5.3-0.1,7.8-0.6c0.2-2.3,0.3-4.3,0.3-6.6
		c0-2.3-0.1-4.3-0.3-6.6c-2.5-0.4-5.3-0.6-7.8-0.6s-5.3,0.1-7.8,0.6c-0.2,2.3-0.3,4.3-0.3,6.6C900.2,357,900.3,359,900.5,361.3z"/>
	<path class="st0" d="M932.3,371c-0.6-9-0.8-18.7-0.8-27.7v-6.6h11.4v6.6c0,5.7,0.1,12.3,0.2,18c2.4,0.6,5,0.6,7.4,0.6
		s4.9,0,7.3-0.6c0.2-5.7,0.2-12.3,0.2-18v-6.6h11.4v6.6c0,9-0.8,18.7-0.9,27.7c-6.1,1.7-12,2.3-18.1,2.3
		C944.4,373.3,938.4,372.7,932.3,371z"/>
	<path class="st0" d="M995.6,354.6h0.4c1.2,0,2.3,0,3.4-0.1c0.1-1.1,0.2-2.4,0.2-3.6s-0.1-2.4-0.2-3.7c-2.5-0.3-4.6-0.6-7.8-0.6
		c-2.6,0-5,0.1-7.6,0.3v25.8h-11.2v-36c6.3-0.4,12.6-0.6,18.8-0.6c5.4,0,13,0.3,18.6,2c0.4,3.7,0.8,7.6,0.8,11.1
		c0,4.6,0,9.4-0.8,14.3l-4.5,0.3l6.7,8.7h-14l-13.4-17v-1.1L995.6,354.6z"/>
	<path class="st0" d="M1033.7,372.7c0-12.6,0.2-27.1,0.6-39.8c8.1-1.3,16-1.9,24.1-1.9s16,0.6,24.2,1.9c0.5,12.7,0.6,27.3,0.6,39.8
		h-11.6c0-9.1,0-20.1-0.4-29.1c-2.3-0.3-4.6-0.4-6.9-0.6v29.7h-11.7V343c-2.3,0.1-4.6,0.3-6.8,0.6c-0.3,9-0.4,20.1-0.4,29.1H1033.7z
		"/>
	<path class="st0" d="M1114.9,358.9h-16.3v2.9c3.8,0.6,8,0.6,11.8,0.6c4.1,0,9,0,13.1-0.6v11c-6,0.4-11.8,0.6-17.6,0.6
		c-6.1,0-12.4-0.1-18.5-0.6v-35.8c6.5-0.4,13.4-0.6,20-0.6c5.3,0,10.5,0.1,16,0.6v11c-4.4-0.6-10-0.6-14.4-0.6c-3.4,0-7,0-10.4,0.4
		v3.1h16.3V358.9z"/>
	<path class="st0" d="M1126.3,372.7c0-11,0.2-23.7,0.6-34.8c7.4-1.3,14.6-1.7,22-1.7s14.6,0.6,22,1.7c0.4,11,0.6,23.8,0.6,34.8
		h-11.2c0-7.6,0-17-0.4-24.5c-1.8-0.1-3.6-0.3-5.4-0.4v25h-11.2v-25c-1.8,0-3.6,0.3-5.4,0.4c-0.3,7.6-0.4,17-0.4,24.5H1126.3z"/>
	<path class="st0" d="M1194.7,373.3c-6.4,0-12.8-0.6-19.3-1.7c-0.3-5.7-0.5-11.1-0.5-16.8c0-5.7,0.2-11.1,0.5-16.8
		c6.5-1.3,12.9-1.7,19.3-1.7s12.8,0.6,19.3,1.7c0.3,5.7,0.5,11.1,0.5,16.8c0,5.7-0.2,11.1-0.5,16.8
		C1207.5,372.8,1201.1,373.3,1194.7,373.3z M1186.8,361.3c2.5,0.4,5.3,0.6,7.8,0.6s5.3-0.1,7.8-0.6c0.2-2.3,0.3-4.3,0.3-6.6
		c0-2.3-0.1-4.3-0.3-6.6c-2.5-0.4-5.3-0.6-7.8-0.6s-5.3,0.1-7.8,0.6c-0.2,2.3-0.3,4.3-0.3,6.6C1186.5,357,1186.6,359,1186.8,361.3z"
		/>
	<path class="st0" d="M1240.6,354.6h0.4c1.2,0,2.3,0,3.4-0.1c0.1-1.1,0.2-2.4,0.2-3.6s-0.1-2.4-0.2-3.7c-2.5-0.3-4.6-0.6-7.8-0.6
		c-2.6,0-5,0.1-7.6,0.3v25.8h-11.2v-36c6.3-0.4,12.6-0.6,18.8-0.6c5.4,0,13,0.3,18.6,2c0.4,3.7,0.8,7.6,0.8,11.1
		c0,4.6,0,9.4-0.8,14.3l-4.5,0.3l6.7,8.7h-14l-13.4-17v-1.1L1240.6,354.6z"/>
	<path class="st0" d="M1271.6,372.7h-11.2v-36h11.2V372.7z"/>
	<path class="st0" d="M1302.2,358.9h-16.3v2.9c3.8,0.6,8,0.6,11.8,0.6c4.1,0,9,0,13.1-0.6v11c-6,0.4-11.8,0.6-17.6,0.6
		c-6.1,0-12.4-0.1-18.5-0.6v-35.8c6.5-0.4,13.4-0.6,20-0.6c5.3,0,10.5,0.1,16,0.6v11c-4.4-0.6-10-0.6-14.4-0.6c-3.4,0-7,0-10.4,0.4
		v3.1h16.3V358.9z"/>
	<path class="st0" d="M1314,358c-0.6-3.4-0.8-6.6-0.8-9.8c0-3.7,0.2-6.8,0.8-10.4c5.9-1.1,11.8-1.4,17.6-1.4
		c5.9,0,11.7,0.1,17.7,0.9v10c-3.9-0.1-7.5-0.6-12.8-0.6c-5,0-8.4,0.3-12.1,0.6c-0.1,0.3-0.1,0.7-0.1,1.1c0,0.3,0,0.6,0.1,1
		c8.3,0.6,16.6,0,25,2.6c0.6,3.4,0.8,6.3,0.8,9.8c0,3.6-0.2,6.8-0.8,10.4c-6,1-11.8,1.4-17.8,1.4c-5.8,0-11.6-0.3-17.6-0.9v-10
		c4,0.3,7.7,0.6,13.2,0.6c5,0,8.3-0.3,11.6-0.6c0.1-0.1,0.2-0.6,0.2-1c0-0.4-0.1-0.7-0.2-1C1330.5,360.1,1322.4,360.3,1314,358z"/>
	<path class="st0" d="M1371.3,358.7l-1.4-27.1h11.6l-2.2,27.1H1371.3z M1370.8,372.7c1.4,0.4,3,0.6,4.5,0.6c1.4,0,3-0.1,4.5-0.6
		c0.1-2.1,0.1-4.1,0.1-6.3c0-2.1,0-4.1-0.1-6.3c-1.5-0.4-3-0.7-4.5-0.7s-3,0.3-4.5,0.7c-0.1,2.1-0.2,4.1-0.2,6.3
		C1370.6,368.6,1370.7,370.6,1370.8,372.7z"/>
</g>
</svg>
